<?xml version="1.0" encoding="UTF-8"?>
<!DOCTYPE svg PUBLIC "-//W3C//DTD SVG 1.1//EN" "http://www.w3.org/Graphics/SVG/1.1/DTD/svg11.dtd">
<svg xmlns="http://www.w3.org/2000/svg" version="1.1" width="480px" height="480px" style="shape-rendering:geometricPrecision; text-rendering:geometricPrecision; image-rendering:optimizeQuality; fill-rule:evenodd; clip-rule:evenodd" xmlns:xlink="http://www.w3.org/1999/xlink">
<g><path style="opacity:1" fill="#000000" d="M -0.5,-0.5 C 159.5,-0.5 319.5,-0.5 479.5,-0.5C 479.5,159.5 479.5,319.5 479.5,479.5C 319.5,479.5 159.5,479.5 -0.5,479.5C -0.5,319.5 -0.5,159.5 -0.5,-0.5 Z"/></g>
<g><path style="opacity:1" fill="#b7b7b7" d="M 183.5,115.5 C 157.5,115.5 131.5,115.5 105.5,115.5C 105.5,198.167 105.5,280.833 105.5,363.5C 125.167,363.5 144.833,363.5 164.5,363.5C 144.674,364.497 124.674,364.83 104.5,364.5C 104.5,281.167 104.5,197.833 104.5,114.5C 131.005,114.169 157.339,114.502 183.5,115.5 Z"/></g>
<g><path style="opacity:1" fill="#fefefe" d="M 183.5,115.5 C 202.305,172.36 220.972,229.36 239.5,286.5C 258.032,229.57 276.366,172.57 294.5,115.5C 320.833,115.5 347.167,115.5 373.5,115.5C 373.5,198.167 373.5,280.833 373.5,363.5C 353.833,363.5 334.167,363.5 314.5,363.5C 314.5,342.167 314.5,320.833 314.5,299.5C 316.209,262.495 317.709,225.495 319,188.5C 299.068,246.796 279.235,305.129 259.5,363.5C 246.167,364.833 232.833,364.833 219.5,363.5C 199.568,305.537 179.735,247.537 160,189.5C 160.756,221.175 162.089,252.842 164,284.5C 164.5,310.831 164.667,337.165 164.5,363.5C 144.833,363.5 125.167,363.5 105.5,363.5C 105.5,280.833 105.5,198.167 105.5,115.5C 131.5,115.5 157.5,115.5 183.5,115.5 Z"/></g>
<g><path style="opacity:1" fill="#b2b2b2" d="M 294.5,115.5 C 320.995,114.502 347.661,114.169 374.5,114.5C 374.5,197.833 374.5,281.167 374.5,364.5C 354.167,364.5 333.833,364.5 313.5,364.5C 313.169,342.66 313.503,320.994 314.5,299.5C 314.5,320.833 314.5,342.167 314.5,363.5C 334.167,363.5 353.833,363.5 373.5,363.5C 373.5,280.833 373.5,198.167 373.5,115.5C 347.167,115.5 320.833,115.5 294.5,115.5 Z"/></g>
</svg>
